<svg xmlns="http://www.w3.org/2000/svg" xmlns:xlink="http://www.w3.org/1999/xlink" width="500" zoomAndPan="magnify" viewBox="0 0 375 187.499995" height="250" preserveAspectRatio="xMidYMid meet" version="1.0"><defs><g/></defs><g fill="#000000" fill-opacity="1"><g transform="translate(106.39852, 90.138952)"><g><path d="M 24.46875 -35.375 C 27.382812 -35.375 29.488281 -34.457031 30.78125 -32.625 C 32.03125 -30.90625 32.65625 -28.316406 32.65625 -24.859375 L 32.65625 -25.109375 C 32.65625 -21.703125 32.03125 -19.113281 30.78125 -17.34375 C 29.488281 -15.539062 27.382812 -14.640625 24.46875 -14.640625 L 9.78125 -14.59375 L 9.78125 -1.453125 C 9.78125 -0.796875 9.625 -0.378906 9.3125 -0.203125 C 9 -0.0351562 8.753906 0.046875 8.578125 0.046875 L 4.640625 0.046875 C 4.460938 0.046875 4.21875 -0.0351562 3.90625 -0.203125 C 3.59375 -0.378906 3.4375 -0.796875 3.4375 -1.453125 L 3.4375 -19.484375 C 3.4375 -20.140625 3.59375 -20.546875 3.90625 -20.703125 C 4.21875 -20.867188 4.460938 -20.953125 4.640625 -20.953125 L 23.34375 -20.953125 C 24.4375 -20.953125 25.195312 -21.265625 25.625 -21.890625 C 26.082031 -22.515625 26.3125 -23.546875 26.3125 -24.984375 C 26.3125 -26.410156 26.082031 -27.441406 25.625 -28.078125 C 25.195312 -28.703125 24.4375 -29.015625 23.34375 -29.015625 L 4.640625 -29.015625 C 4.460938 -29.015625 4.21875 -29.09375 3.90625 -29.25 C 3.59375 -29.40625 3.4375 -29.8125 3.4375 -30.46875 L 3.4375 -33.859375 C 3.4375 -34.546875 3.59375 -34.96875 3.90625 -35.125 C 4.21875 -35.289062 4.460938 -35.375 4.640625 -35.375 Z M 24.46875 -35.375 "/></g></g></g><g fill="#000000" fill-opacity="1"><g transform="translate(144.636499, 90.138952)"><g><path d="M 32.75 -27.390625 C 33.175781 -25.585938 33.390625 -23.46875 33.390625 -21.03125 L 33.390625 -14.296875 C 33.390625 -11.859375 33.175781 -9.738281 32.75 -7.9375 C 32.550781 -7.050781 32.269531 -6.226562 31.90625 -5.46875 C 31.550781 -4.707031 31.144531 -4.046875 30.6875 -3.484375 C 29.738281 -2.273438 28.523438 -1.382812 27.046875 -0.8125 C 25.585938 -0.238281 23.851562 0.046875 21.84375 0.046875 L 7.171875 0.046875 C 6.515625 0.046875 5.890625 -0.113281 5.296875 -0.4375 C 4.710938 -0.769531 4.25 -1.222656 3.90625 -1.796875 C 3.675781 -2.203125 3.519531 -2.648438 3.4375 -3.140625 L 3.484375 -32.453125 C 3.535156 -32.617188 3.597656 -32.796875 3.671875 -32.984375 C 3.742188 -33.171875 3.820312 -33.347656 3.90625 -33.515625 C 4.59375 -34.640625 5.582031 -35.242188 6.875 -35.328125 L 6.875 -35.375 L 21.84375 -35.375 C 23.820312 -35.375 25.554688 -35.085938 27.046875 -34.515625 C 28.503906 -33.941406 29.71875 -33.066406 30.6875 -31.890625 C 31.144531 -31.285156 31.550781 -30.609375 31.90625 -29.859375 C 32.269531 -29.117188 32.550781 -28.296875 32.75 -27.390625 Z M 9.75 -6.5625 C 9.75 -6.476562 9.753906 -6.421875 9.765625 -6.390625 C 9.773438 -6.367188 9.78125 -6.359375 9.78125 -6.359375 L 21.71875 -6.359375 C 22.207031 -6.359375 22.664062 -6.382812 23.09375 -6.4375 C 23.519531 -6.5 23.90625 -6.585938 24.25 -6.703125 C 24.90625 -6.953125 25.4375 -7.335938 25.84375 -7.859375 C 26.269531 -8.429688 26.566406 -9.175781 26.734375 -10.09375 C 26.828125 -10.570312 26.898438 -11.101562 26.953125 -11.6875 C 27.015625 -12.28125 27.046875 -12.9375 27.046875 -13.65625 L 27.046875 -21.671875 C 27.046875 -22.390625 27.015625 -23.046875 26.953125 -23.640625 C 26.898438 -24.242188 26.828125 -24.789062 26.734375 -25.28125 C 26.566406 -26.195312 26.269531 -26.925781 25.84375 -27.46875 C 25.5 -27.988281 24.96875 -28.375 24.25 -28.625 C 23.5625 -28.882812 22.71875 -29.015625 21.71875 -29.015625 L 9.828125 -29.015625 C 9.773438 -29.015625 9.75 -28.925781 9.75 -28.75 Z M 9.75 -6.5625 "/></g></g></g><g fill="#000000" fill-opacity="1"><g transform="translate(183.604047, 90.138952)"><g><path d="M 39.265625 -35.375 C 40.703125 -35.375 41.675781 -34.914062 42.1875 -34 C 42.644531 -33.195312 42.875 -31.804688 42.875 -29.828125 L 42.875 -1.453125 C 42.875 -0.796875 42.71875 -0.378906 42.40625 -0.203125 C 42.09375 -0.0351562 41.835938 0.046875 41.640625 0.046875 L 37.9375 0.046875 C 37.769531 0.046875 37.523438 -0.0351562 37.203125 -0.203125 C 36.890625 -0.378906 36.734375 -0.796875 36.734375 -1.453125 L 36.734375 -27.25 C 36.734375 -27.28125 36.734375 -27.300781 36.734375 -27.3125 C 36.734375 -27.332031 36.734375 -27.34375 36.734375 -27.34375 L 36.53125 -27.34375 C 36.46875 -27.34375 36.4375 -27.3125 36.4375 -27.25 L 29.0625 -9.0625 C 28.769531 -8.164062 28.46875 -7.390625 28.15625 -6.734375 C 28.007812 -6.421875 27.84375 -6.132812 27.65625 -5.875 C 27.476562 -5.625 27.300781 -5.382812 27.125 -5.15625 C 26.695312 -4.695312 26.238281 -4.378906 25.75 -4.203125 C 25.289062 -4.035156 24.71875 -3.953125 24.03125 -3.953125 L 22.28125 -3.953125 C 21.644531 -3.953125 21.070312 -4.035156 20.5625 -4.203125 C 20.300781 -4.285156 20.0625 -4.410156 19.84375 -4.578125 C 19.632812 -4.753906 19.414062 -4.945312 19.1875 -5.15625 C 18.8125 -5.613281 18.46875 -6.140625 18.15625 -6.734375 C 17.875 -7.390625 17.570312 -8.164062 17.25 -9.0625 L 9.921875 -27.21875 C 9.890625 -27.300781 9.84375 -27.34375 9.78125 -27.34375 L 9.578125 -27.34375 C 9.578125 -27.34375 9.578125 -27.332031 9.578125 -27.3125 C 9.578125 -27.300781 9.578125 -27.28125 9.578125 -27.25 L 9.578125 -1.453125 C 9.578125 -0.796875 9.425781 -0.378906 9.125 -0.203125 C 8.820312 -0.0351562 8.570312 0.046875 8.375 0.046875 L 4.671875 0.046875 C 4.472656 0.046875 4.21875 -0.0351562 3.90625 -0.203125 C 3.59375 -0.378906 3.4375 -0.796875 3.4375 -1.453125 L 3.4375 -29.828125 C 3.4375 -31.804688 3.664062 -33.195312 4.125 -34 C 4.632812 -34.914062 5.617188 -35.375 7.078125 -35.375 L 11.03125 -35.375 C 11.65625 -35.375 12.15625 -35.316406 12.53125 -35.203125 C 13.019531 -35.054688 13.421875 -34.835938 13.734375 -34.546875 C 13.878906 -34.378906 14.03125 -34.191406 14.1875 -33.984375 C 14.34375 -33.785156 14.476562 -33.5625 14.59375 -33.3125 C 14.707031 -33.050781 14.828125 -32.753906 14.953125 -32.421875 C 15.085938 -32.097656 15.210938 -31.734375 15.328125 -31.328125 L 22.875 -12.359375 C 22.90625 -12.273438 22.929688 -12.222656 22.953125 -12.203125 C 22.984375 -12.191406 23 -12.1875 23 -12.1875 L 23.4375 -12.1875 C 23.488281 -12.1875 23.53125 -12.242188 23.5625 -12.359375 L 31.15625 -31.328125 C 31.300781 -31.734375 31.429688 -32.097656 31.546875 -32.421875 C 31.660156 -32.753906 31.773438 -33.050781 31.890625 -33.3125 C 32.035156 -33.5625 32.175781 -33.785156 32.3125 -33.984375 C 32.457031 -34.191406 32.601562 -34.378906 32.75 -34.546875 C 33.09375 -34.867188 33.476562 -35.085938 33.90625 -35.203125 C 34.28125 -35.316406 34.78125 -35.375 35.40625 -35.375 Z M 39.265625 -35.375 "/></g></g></g><g fill="#000000" fill-opacity="1"><g transform="translate(232.055996, 90.138952)"><g><path d="M 24.171875 -21.125 C 26.398438 -21.125 28.097656 -20.332031 29.265625 -18.75 C 30.390625 -17.207031 30.953125 -15.035156 30.953125 -12.234375 L 30.953125 -8.453125 C 30.953125 -5.992188 30.40625 -3.976562 29.3125 -2.40625 C 28.195312 -0.800781 26.453125 0 24.078125 0 L 4.71875 0 C 4.519531 0 4.265625 -0.078125 3.953125 -0.234375 C 3.640625 -0.390625 3.484375 -0.796875 3.484375 -1.453125 L 3.484375 -4.890625 C 3.484375 -5.546875 3.640625 -5.953125 3.953125 -6.109375 C 4.265625 -6.273438 4.519531 -6.359375 4.71875 -6.359375 L 23.046875 -6.359375 C 23.421875 -6.359375 23.6875 -6.421875 23.84375 -6.546875 C 24 -6.671875 24.117188 -6.789062 24.203125 -6.90625 C 24.460938 -7.332031 24.59375 -7.9375 24.59375 -8.71875 L 24.59375 -12.40625 C 24.59375 -13.46875 24.421875 -14.125 24.078125 -14.375 C 23.734375 -14.632812 23.40625 -14.765625 23.09375 -14.765625 L 10.21875 -14.765625 C 9.332031 -14.765625 8.421875 -14.878906 7.484375 -15.109375 C 6.554688 -15.335938 5.765625 -15.894531 5.109375 -16.78125 C 3.992188 -18.351562 3.4375 -20.644531 3.4375 -23.65625 L 3.4375 -26.90625 C 3.4375 -29.425781 3.992188 -31.457031 5.109375 -33 C 6.222656 -34.582031 7.953125 -35.375 10.296875 -35.375 L 28.796875 -35.375 C 28.972656 -35.375 29.21875 -35.289062 29.53125 -35.125 C 29.84375 -34.96875 30 -34.5625 30 -33.90625 L 30 -30.46875 C 30 -29.8125 29.84375 -29.40625 29.53125 -29.25 C 29.21875 -29.09375 28.972656 -29.015625 28.796875 -29.015625 L 11.328125 -29.015625 C 10.953125 -29.015625 10.6875 -28.957031 10.53125 -28.84375 C 10.375 -28.726562 10.253906 -28.597656 10.171875 -28.453125 C 9.941406 -27.992188 9.828125 -27.394531 9.828125 -26.65625 L 9.828125 -23.484375 C 9.828125 -22.421875 9.988281 -21.757812 10.3125 -21.5 C 10.644531 -21.25 10.96875 -21.125 11.28125 -21.125 Z M 24.171875 -21.125 "/></g></g></g><g fill="#000000" fill-opacity="1"><g transform="translate(53.003395, 127.732976)"><g><path d="M 2.46875 0 L 2.46875 -16.28125 L 8.625 -16.28125 C 9.632812 -16.28125 10.488281 -16.117188 11.1875 -15.796875 C 11.882812 -15.484375 12.40625 -15.03125 12.75 -14.4375 C 13.101562 -13.851562 13.28125 -13.148438 13.28125 -12.328125 C 13.28125 -11.617188 13.085938 -10.976562 12.703125 -10.40625 C 12.328125 -9.84375 11.785156 -9.398438 11.078125 -9.078125 L 11.078125 -8.84375 C 12.160156 -8.570312 12.976562 -8.082031 13.53125 -7.375 C 14.09375 -6.675781 14.375 -5.789062 14.375 -4.71875 C 14.375 -3.207031 13.929688 -2.039062 13.046875 -1.21875 C 12.160156 -0.40625 10.84375 0 9.09375 0 Z M 8.546875 -9.453125 C 9.441406 -9.453125 10.140625 -9.6875 10.640625 -10.15625 C 11.140625 -10.625 11.390625 -11.269531 11.390625 -12.09375 C 11.390625 -12.96875 11.148438 -13.617188 10.671875 -14.046875 C 10.191406 -14.484375 9.484375 -14.703125 8.546875 -14.703125 L 4.375 -14.703125 L 4.375 -9.453125 Z M 8.953125 -1.578125 C 11.273438 -1.578125 12.4375 -2.625 12.4375 -4.71875 C 12.4375 -6.8125 11.273438 -7.859375 8.953125 -7.859375 L 4.375 -7.859375 L 4.375 -1.578125 Z M 8.953125 -1.578125 "/></g></g></g><g fill="#000000" fill-opacity="1"><g transform="translate(77.311654, 127.732976)"><g><path d="M 7.953125 0 L 6.046875 0 L 6.046875 -6.390625 L 0.421875 -16.28125 L 2.515625 -16.28125 L 6.90625 -8.65625 L 7.1875 -8.65625 L 11.546875 -16.28125 L 13.59375 -16.28125 L 7.953125 -6.390625 Z M 7.953125 0 "/></g></g></g><g fill="#000000" fill-opacity="1"><g transform="translate(99.950355, 127.732976)"><g/></g></g><g fill="#000000" fill-opacity="1"><g transform="translate(114.185615, 127.732976)"><g><path d="M 12.84375 -9.6875 L 12.84375 -16.28125 L 14.75 -16.28125 L 14.75 0 L 12.84375 0 L 12.84375 -8.046875 L 4.375 -8.046875 L 4.375 0 L 2.46875 0 L 2.46875 -16.28125 L 4.375 -16.28125 L 4.375 -9.6875 Z M 12.84375 -9.6875 "/></g></g></g><g fill="#000000" fill-opacity="1"><g transform="translate(140.040998, 127.732976)"><g><path d="M 4.375 0 L 2.46875 0 L 2.46875 -16.28125 L 4.375 -16.28125 Z M 4.375 0 "/></g></g></g><g fill="#000000" fill-opacity="1"><g transform="translate(155.533997, 127.732976)"><g><path d="M 4.375 -7.671875 L 4.375 -1.578125 L 12.671875 -1.578125 L 12.671875 0 L 2.46875 0 L 2.46875 -16.28125 L 12.5 -16.28125 L 12.5 -14.703125 L 4.375 -14.703125 L 4.375 -9.25 L 11.546875 -9.25 L 11.546875 -7.671875 Z M 4.375 -7.671875 "/></g></g></g><g fill="#000000" fill-opacity="1"><g transform="translate(177.927836, 127.732976)"><g><path d="M 8.40625 0.234375 C 6.40625 0.234375 4.890625 -0.269531 3.859375 -1.28125 C 2.835938 -2.300781 2.328125 -3.804688 2.328125 -5.796875 L 2.328125 -16.28125 L 4.234375 -16.28125 L 4.234375 -5.8125 C 4.234375 -4.382812 4.578125 -3.3125 5.265625 -2.59375 C 5.953125 -1.882812 7 -1.53125 8.40625 -1.53125 C 11.175781 -1.53125 12.5625 -2.957031 12.5625 -5.8125 L 12.5625 -16.28125 L 14.46875 -16.28125 L 14.46875 -5.796875 C 14.46875 -3.804688 13.953125 -2.300781 12.921875 -1.28125 C 11.898438 -0.269531 10.394531 0.234375 8.40625 0.234375 Z M 8.40625 0.234375 "/></g></g></g><g fill="#000000" fill-opacity="1"><g transform="translate(203.349139, 127.732976)"><g/></g></g><g fill="#000000" fill-opacity="1"><g transform="translate(217.584404, 127.732976)"><g><path d="M 12.703125 -16.28125 L 12.703125 -14.65625 L 7.609375 -14.65625 L 7.609375 0 L 5.703125 0 L 5.703125 -14.65625 L 0.59375 -14.65625 L 0.59375 -16.28125 Z M 12.703125 -16.28125 "/></g></g></g><g fill="#000000" fill-opacity="1"><g transform="translate(239.521897, 127.732976)"><g><path d="M 2.46875 0 L 2.46875 -16.28125 L 8.375 -16.28125 C 9.46875 -16.28125 10.382812 -16.097656 11.125 -15.734375 C 11.863281 -15.378906 12.421875 -14.875 12.796875 -14.21875 C 13.171875 -13.5625 13.359375 -12.785156 13.359375 -11.890625 C 13.359375 -10.878906 13.101562 -10.046875 12.59375 -9.390625 C 12.09375 -8.734375 11.304688 -8.238281 10.234375 -7.90625 L 10.234375 -7.671875 C 10.765625 -7.460938 11.195312 -7.132812 11.53125 -6.6875 C 11.863281 -6.25 12.171875 -5.585938 12.453125 -4.703125 L 13.953125 0 L 11.984375 0 L 10.359375 -4.984375 C 10.160156 -5.566406 9.9375 -6.023438 9.6875 -6.359375 C 9.4375 -6.691406 9.117188 -6.929688 8.734375 -7.078125 C 8.347656 -7.234375 7.859375 -7.3125 7.265625 -7.3125 L 4.375 -7.3125 L 4.375 0 Z M 8.328125 -8.9375 C 9.347656 -8.9375 10.101562 -9.171875 10.59375 -9.640625 C 11.09375 -10.109375 11.34375 -10.828125 11.34375 -11.796875 C 11.34375 -12.765625 11.09375 -13.484375 10.59375 -13.953125 C 10.101562 -14.421875 9.347656 -14.65625 8.328125 -14.65625 L 4.375 -14.65625 L 4.375 -8.9375 Z M 8.328125 -8.9375 "/></g></g></g><g fill="#000000" fill-opacity="1"><g transform="translate(263.240252, 127.732976)"><g><path d="M 4.375 0 L 2.46875 0 L 2.46875 -16.28125 L 4.375 -16.28125 Z M 4.375 0 "/></g></g></g><g fill="#000000" fill-opacity="1"><g transform="translate(278.733251, 127.732976)"><g><path d="M 4.328125 0 L 2.46875 0 L 2.46875 -16.28125 L 4.8125 -16.28125 L 12.75 -3.84375 L 13.03125 -3.890625 L 13.03125 -16.28125 L 14.890625 -16.28125 L 14.890625 0 L 12.890625 0 L 4.609375 -13.3125 L 4.328125 -13.265625 Z M 4.328125 0 "/></g></g></g><g fill="#000000" fill-opacity="1"><g transform="translate(304.733335, 127.732976)"><g><path d="M 12.84375 -9.6875 L 12.84375 -16.28125 L 14.75 -16.28125 L 14.75 0 L 12.84375 0 L 12.84375 -8.046875 L 4.375 -8.046875 L 4.375 0 L 2.46875 0 L 2.46875 -16.28125 L 4.375 -16.28125 L 4.375 -9.6875 Z M 12.84375 -9.6875 "/></g></g></g></svg>